<?xml version="1.0" encoding="iso-8859-1"?>
<!-- Generator: Adobe Illustrator 19.0.0, SVG Export Plug-In . SVG Version: 6.00 Build 0)  -->
<svg version="1.1" id="Layer_1" xmlns="http://www.w3.org/2000/svg" xmlns:xlink="http://www.w3.org/1999/xlink" x="0px" y="0px"
	 viewBox="0 0 511.999 511.999" style="enable-background:new 0 0 511.999 511.999;" xml:space="preserve" fill="#ffffff">
<g>
	<g>
		<g>
			<rect x="143.949" y="344.154" width="224.099" height="15.782"/>
			<rect x="215.987" y="304.132" width="80.034" height="15.782"/>
			<rect x="215.987" y="272.117" width="80.034" height="15.782"/>
			<rect x="215.987" y="240.101" width="80.034" height="15.782"/>
			<rect x="95.931" y="24.01" width="320.145" height="15.782"/>
			<path d="M344.039,144.063c-26.416,0-47.909,21.491-47.909,47.909h15.782c0-17.715,14.412-32.127,32.127-32.127
				c17.715,0,32.127,14.412,32.127,32.127h15.782C391.947,165.554,370.455,144.063,344.039,144.063z"/>
			<path d="M15.782,359.933h96.155v-15.782H0v63.803h24.01v80.035h87.813v-80.035h80.148v-15.782H15.782V359.933z M39.792,407.954
				h56.25v64.253h-56.25V407.954z"/>
			<path d="M400.063,344.151v15.782h96.155v32.24H320.027v15.782h80.148v80.035h87.813v-80.035h24.01v-63.803H400.063z
				 M472.207,472.207h-56.25v-64.253h56.25V472.207z"/>
			<path d="M199.862,240.105H56.025v79.81h143.838V240.105z M96.043,304.133H71.806v-48.246h24.236V304.133z M184.081,304.133
				h-72.258v-48.246h72.258V304.133z"/>
			<path d="M455.974,240.105H312.137v79.81h143.838V240.105z M400.176,304.133h-72.258v-48.246h72.258V304.133z M440.194,304.133
				h-24.236v-48.246h24.236V304.133z"/>
			<path d="M31.901,175.852c9.352,0,17.776-4.045,23.617-10.478l13.018,34.714H24.01v135.947h15.782V215.869h432.416v120.165h15.782
				V200.087h-44.526l13.018-34.714c5.84,6.433,14.266,10.478,23.617,10.478c17.59,0,31.901-14.311,31.901-31.901
				s-14.309-31.901-31.9-31.901c-13.346,0-24.798,8.241-29.55,19.901l-0.004-0.004l-0.045,0.128
				c-0.35,0.871-0.667,1.759-0.941,2.666l-14.547,41.222l-20.2-127.94H97.19L76.989,175.966l-14.527-41.155
				c-0.291-0.972-0.629-1.924-1.008-2.856l-0.003-0.009c-4.753-11.655-16.205-19.895-29.549-19.895
				C14.311,112.049,0,126.36,0,143.95S14.311,175.852,31.901,175.852z M480.098,127.831c8.888,0,16.119,7.231,16.119,16.119
				s-7.231,16.119-16.119,16.119c-8.888,0-16.119-7.23-16.119-16.119S471.21,127.831,480.098,127.831z M110.675,63.803h137.433
				v16.233h-16.119v15.782h48.021V80.036h-16.119V63.803h137.433l21.519,136.286H89.156L110.675,63.803z M31.901,127.831
				c8.888,0,16.119,7.231,16.119,16.119s-7.231,16.119-16.119,16.119s-16.119-7.23-16.119-16.119S23.013,127.831,31.901,127.831z"/>
			
				<rect x="138.063" y="100.474" transform="matrix(0.7071 0.7071 -0.7071 0.7071 131.8016 -66.3182)" width="15.781" height="50.932"/>
			
				<rect x="164.069" y="89.015" transform="matrix(-0.7071 -0.7071 0.7071 -0.7071 194.5954 360.498)" width="15.781" height="101.864"/>
			
				<rect x="184.086" y="148.64" transform="matrix(-0.7071 -0.7071 0.7071 -0.7071 214.617 408.8139)" width="15.781" height="22.637"/>
			<rect x="120.056" y="336.032" width="15.782" height="32.015"/>
			<rect x="376.17" y="336.032" width="15.782" height="32.015"/>
			<path d="M200.087,439.968h111.824v-63.803H200.087V439.968z M215.869,391.947L215.869,391.947h80.261v32.24h-80.261V391.947z"/>
			<rect x="223.983" y="400.179" width="16.007" height="15.782"/>
			<rect x="247.992" y="400.179" width="16.007" height="15.782"/>
			<rect x="272.011" y="400.179" width="16.007" height="15.782"/>
		</g>
	</g>
</g>
<g>
</g>
<g>
</g>
<g>
</g>
<g>
</g>
<g>
</g>
<g>
</g>
<g>
</g>
<g>
</g>
<g>
</g>
<g>
</g>
<g>
</g>
<g>
</g>
<g>
</g>
<g>
</g>
<g>
</g>
</svg>
