<?xml version="1.0" encoding="iso-8859-1"?>
<!-- Generator: Adobe Illustrator 16.0.0, SVG Export Plug-In . SVG Version: 6.00 Build 0)  -->
<!DOCTYPE svg PUBLIC "-//W3C//DTD SVG 1.1//EN" "http://www.w3.org/Graphics/SVG/1.1/DTD/svg11.dtd">
<svg version="1.1" id="Capa_1" xmlns="http://www.w3.org/2000/svg" xmlns:xlink="http://www.w3.org/1999/xlink" x="0px" y="0px"
	 width="26px" height="26px" viewBox="0 0 26 26" style="enable-background:new 0 0 26 26;" xml:space="preserve" fill="rgb(251, 0, 9)">
<g>
	<g>
		<path d="M16.643,21c0,0.275-0.225,0.5-0.5,0.5h-13c-0.275,0-0.5-0.225-0.5-0.5V3c0-0.275,0.225-0.5,0.5-0.5h13
			c0.275,0,0.5,0.225,0.5,0.5v3.454h1V2c0-1.1-0.9-2-2-2h-12c-1.1,0-2,0.9-2,2v22c0,1.1,0.9,2,2,2h12c1.1,0,2-0.9,2-2v-4.454h-1V21z
			 M8.643,0.923h2c0.275,0,0.5,0.159,0.5,0.354c0,0.195-0.225,0.354-0.5,0.354h-2c-0.275,0-0.5-0.159-0.5-0.354
			C8.143,1.083,8.367,0.923,8.643,0.923z M4.143,0.778c0.275,0,0.5,0.224,0.5,0.5c0,0.276-0.225,0.5-0.5,0.5s-0.5-0.224-0.5-0.5
			C3.643,1.002,3.867,0.778,4.143,0.778z M9.643,24.936c-0.659,0-1.193-0.533-1.193-1.192c0-0.66,0.534-1.194,1.193-1.194
			c0.659,0,1.194,0.534,1.194,1.194C10.837,24.4,10.302,24.936,9.643,24.936z"/>
		<path d="M6.996,9.287l6.697,3.348c1.009,0.504,2.89,0.504,3.897,0l6.697-3.348c-0.25-1.046-1.189-1.833-2.309-1.833H9.304
			C8.186,7.454,7.245,8.241,6.996,9.287z"/>
		<path d="M17.945,13.343c-0.62,0.31-1.438,0.48-2.303,0.48c-0.866,0-1.685-0.171-2.304-0.48l-1.852-0.926l-4.561,2.28v1.472
			c0,1.308,1.07,2.377,2.377,2.377H21.98c1.308,0,2.377-1.069,2.377-2.377v-1.472l-4.562-2.279L17.945,13.343z"/>
		<polygon points="20.683,11.975 24.357,13.812 24.357,10.138 		"/>
		<polygon points="6.927,13.812 10.602,11.975 6.927,10.138 		"/>
	</g>
</g>
<g>
</g>
<g>
</g>
<g>
</g>
<g>
</g>
<g>
</g>
<g>
</g>
<g>
</g>
<g>
</g>
<g>
</g>
<g>
</g>
<g>
</g>
<g>
</g>
<g>
</g>
<g>
</g>
<g>
</g>
</svg>
